<?xml version="1.0" standalone="no"?>
<!DOCTYPE svg PUBLIC "-//W3C//DTD SVG 20010904//EN"
 "http://www.w3.org/TR/2001/REC-SVG-20010904/DTD/svg10.dtd">
<svg version="1.0" xmlns="http://www.w3.org/2000/svg"
 width="1024.000000pt" height="1024.000000pt" viewBox="0 0 1024.000000 1024.000000"
 preserveAspectRatio="xMidYMid meet">

<g transform="translate(0.000000,1024.000000) scale(0.100000,-0.100000)"
fill="#000000" stroke="none">
<path d="M5020 8569 c-42 -8 -75 -21 -149 -57 -54 -26 -155 -126 -193 -190
-47 -78 -78 -185 -78 -266 0 -175 104 -369 248 -460 l42 -26 0 -360 0 -359
-893 -3 c-638 -2 -898 -6 -908 -14 -8 -6 -39 -14 -69 -18 -48 -5 -94 -20 -224
-68 -51 -19 -179 -91 -218 -122 -14 -11 -41 -32 -59 -46 -162 -122 -309 -339
-377 -560 -47 -149 -47 -164 -47 -1465 0 -1109 2 -1238 17 -1315 20 -104 41
-180 63 -229 31 -68 60 -126 66 -131 3 -3 8 -12 12 -22 12 -34 131 -180 201
-245 39 -37 100 -87 134 -110 80 -55 233 -129 297 -144 28 -7 55 -15 60 -20 6
-4 43 -11 83 -14 40 -4 75 -12 78 -16 7 -12 4021 -12 4028 0 3 4 31 11 63 13
116 11 367 106 434 164 8 8 19 14 23 14 8 0 10 1 106 83 120 103 211 218 270
344 17 37 36 76 42 87 13 25 36 104 56 196 14 66 16 218 19 1339 2 715 -1
1269 -6 1275 -4 6 -11 38 -15 71 -8 75 -42 178 -96 289 -107 222 -308 424
-526 530 -126 61 -156 72 -304 108 -82 21 -114 21 -968 25 l-882 4 2 362 3
361 24 13 c44 22 145 127 184 192 116 196 98 435 -46 612 -44 55 -144 130
-188 144 -13 4 -29 11 -35 16 -13 11 -136 29 -189 28 -22 -1 -60 -5 -85 -10z
m-1121 -3100 c135 -42 221 -92 300 -172 44 -46 54 -60 91 -134 101 -198 66
-442 -88 -609 -69 -76 -134 -117 -247 -156 -86 -30 -247 -31 -330 -1 -188 68
-301 177 -365 353 -19 54 -23 84 -23 180 0 106 2 121 31 188 38 92 72 141 142
209 62 60 154 110 244 134 73 19 196 23 245 8z m2686 -6 c39 -9 72 -20 75 -23
3 -4 21 -12 41 -19 47 -15 157 -106 201 -167 84 -116 114 -220 105 -364 -10
-145 -55 -247 -157 -351 -59 -61 -157 -122 -211 -134 -19 -4 -40 -12 -47 -18
-8 -6 -61 -11 -120 -11 -111 -1 -177 13 -272 57 -54 25 -56 26 -139 104 -74
69 -122 150 -148 247 -19 74 -28 202 -15 219 5 7 12 32 16 56 7 48 37 118 69
165 31 44 143 155 169 167 13 5 43 21 68 34 25 13 66 27 93 31 26 4 50 11 53
15 9 15 145 10 219 -8z m-425 -1624 c67 -15 120 -96 120 -183 0 -121 -265
-346 -545 -462 -61 -25 -186 -64 -204 -64 -10 0 -21 -4 -26 -9 -44 -40 -620
-41 -749 -2 -17 6 -62 19 -101 31 -227 70 -419 178 -564 319 -117 114 -144
189 -102 278 28 57 78 91 144 99 77 9 118 -8 197 -82 37 -35 72 -64 78 -64 6
0 15 -6 19 -13 9 -15 146 -97 161 -97 6 0 12 -4 14 -9 3 -9 194 -76 243 -85
17 -3 44 -8 60 -12 176 -37 433 -22 605 36 163 55 277 122 398 233 60 55 95
80 125 87 23 6 47 13 52 15 6 2 17 1 25 -2 8 -3 31 -9 50 -14z"/>
</g>
</svg>
